<svg xmlns:xlink="http://www.w3.org/1999/xlink" xmlns="http://www.w3.org/2000/svg" width="668" height="200" fill="none" viewBox="0 0 668 200" aria-hidden="true" class="badge-img"><path fill="#B6B6B6" d="M620.806 0H37.494c-3.337.134-6.675.267-9.88.935-3.337.534-6.408 1.602-9.345 3.07-2.937 1.469-5.607 3.472-8.01 5.875-2.404 2.403-4.273 5.073-5.875 8.01-1.602 3.071-2.537 6.142-3.07 9.346-.535 3.338-.802 6.542-.935 9.88 0 1.469 0 3.07-.134 4.54v116.688c0 1.469 0 3.071.134 4.54.133 3.338.267 6.675.934 9.88.534 3.337 1.602 6.408 3.07 9.345 1.47 2.938 3.472 5.608 5.876 8.011 2.403 2.403 5.073 4.273 8.01 5.875 3.07 1.602 6.142 2.536 9.346 3.07 3.338.534 6.676.801 9.88.935h593.191c3.337-.134 6.675-.267 9.879-.935 3.338-.534 6.409-1.602 9.48-3.07 2.937-1.469 5.607-3.472 8.01-5.875 2.404-2.27 4.273-5.073 5.875-8.011 1.469-2.937 2.537-6.141 3.071-9.345.667-3.338.801-6.542.934-9.88V37.249c-.133-3.337-.267-6.675-.934-9.88-.534-3.337-1.602-6.408-3.071-9.345s-3.471-5.607-5.875-8.01c-2.269-2.404-5.073-4.273-8.01-5.875-3.071-1.469-6.142-2.537-9.48-3.07-3.204-.535-6.542-.802-9.879-.935h-4.54C624.411 0 622.675 0 620.806 0"></path><path fill="#000" d="M42.168 195.994h-4.406c-2.804-.133-6.008-.267-9.213-.801a29.2 29.2 0 0 1-8.144-2.67c-2.536-1.335-4.94-2.938-6.942-5.074-2.003-2.002-3.739-4.272-5.074-6.942-1.335-2.537-2.136-5.207-2.67-8.144-.668-3.338-.801-6.676-.801-9.213 0-1.068-.134-4.539-.134-4.539V41.788s0-3.47.134-4.405c0-2.537.267-6.008.801-9.213.534-3.07 1.469-5.74 2.67-8.277 1.335-2.537 2.937-4.94 5.074-6.943 2.002-2.003 4.406-3.738 6.942-5.073s5.207-2.137 8.144-2.67c3.338-.535 6.676-.802 9.213-.802h593.057c2.537 0 5.875.267 9.212.801 2.938.534 5.608 1.469 8.278 2.67 2.537 1.336 4.806 2.938 6.943 5.074 2.002 2.003 3.738 4.272 5.073 6.943 1.335 2.536 2.136 5.206 2.67 8.144.534 3.07.801 6.275.801 9.346v125.634c-.133 2.937-.267 6.141-.801 9.212s-1.335 5.741-2.67 8.278c-1.335 2.536-3.071 4.94-5.073 6.809-2.003 2.002-4.406 3.738-6.943 5.073s-5.207 2.136-8.278 2.67c-3.204.535-6.408.668-9.212.802h-9.746z"></path><path fill="#FFFFFF" d="M248.176 135.247h-23.498l-5.741 15.62h-10.281l22.964-58.611h9.747l23.498 58.611H254.05zm-20.561-8.011h17.49l-6.275-16.823c-.801-2.269-1.736-4.94-2.537-7.743l-2.403 7.61zM269.004 117.89c0-3.204-.134-6.809-.267-10.681h9.345c.401 1.869.534 3.605.668 5.474 3.872-4.272 8.278-6.409 13.351-6.409 2.937 0 5.607.668 8.144 2.137s4.54 3.738 6.008 6.942c1.469 3.204 2.27 7.21 2.27 12.016 0 5.074-.935 9.48-2.67 13.084-1.736 3.605-4.139 6.409-7.343 8.145q-4.606 2.803-10.815 2.803c-2.937 0-5.874-.534-8.812-1.468v18.291l-10.013.801V117.89zm26.301 22.296c2.003-2.67 3.071-6.675 3.071-12.016 0-4.94-.801-8.411-2.537-10.547s-3.872-3.338-6.675-3.338c-2.003 0-3.739.401-5.341 1.335a19.8 19.8 0 0 0-4.673 3.739v23.364c.935.534 2.137.935 3.472 1.202s2.67.4 3.872.4c3.738 0 6.675-1.335 8.811-4.139M314.531 117.89c0-3.204-.133-6.809-.267-10.681h9.346c.4 1.869.534 3.605.667 5.474 3.872-4.272 8.278-6.409 13.351-6.409 2.938 0 5.608.668 8.145 2.137s4.539 3.738 6.008 6.942c1.468 3.204 2.269 7.21 2.269 12.016 0 5.074-.934 9.48-2.67 13.084-1.735 3.605-4.139 6.409-7.343 8.145q-4.607 2.803-10.814 2.803c-2.938 0-5.875-.534-8.812-1.468v18.291l-10.013.801V117.89zm26.302 22.296c2.002-2.67 3.071-6.675 3.071-12.016 0-4.94-.801-8.411-2.537-10.547s-3.872-3.338-6.676-3.338c-2.002 0-3.738.401-5.34 1.335a19.8 19.8 0 0 0-4.673 3.739v23.364c.935.534 2.136.935 3.471 1.202s2.67.4 3.872.4c3.738 0 6.809-1.335 8.812-4.139M372.341 148.064c-4.272-2.403-7.61-5.741-9.879-10.28-2.27-4.406-3.472-9.747-3.472-15.755 0-6.542 1.335-12.149 4.006-16.688 2.67-4.54 6.275-8.011 10.948-10.28 4.539-2.27 9.746-3.472 15.487-3.472 3.338 0 6.542.4 9.613 1.068 3.07.801 5.874 1.736 8.544 3.07l-2.536 7.744c-5.341-2.536-10.414-3.738-15.221-3.738-4.005 0-7.61.935-10.68 2.67-3.071 1.736-5.474 4.273-7.077 7.61-1.735 3.338-2.536 7.477-2.536 12.15 0 4.139.667 7.877 2.002 11.081 1.336 3.205 3.338 5.741 6.142 7.744 2.804 1.869 6.408 2.804 10.681 2.804 2.002 0 3.872-.134 5.874-.534 2.003-.401 3.739-.801 5.474-1.469v-11.882h-13.484v-7.744h23.231v24.7a46.8 46.8 0 0 1-10.548 3.604c-3.738.801-7.343 1.202-10.948 1.202-6.141 0-11.215-1.202-15.621-3.605M444.571 150.867c-.401-1.736-.534-3.605-.668-5.741-1.602 1.869-3.471 3.338-6.008 4.673-2.403 1.335-5.207 1.869-8.411 1.869-2.537 0-4.806-.534-6.809-1.469-2.003-.934-3.738-2.403-4.94-4.406s-1.869-4.406-1.869-7.209c0-4.273 1.469-7.61 4.539-10.147 3.071-2.537 8.144-3.738 15.221-3.738 2.67 0 5.34.133 7.877.534v-.801c0-3.872-.801-6.543-2.403-8.145-1.603-1.602-4.006-2.403-7.077-2.403a25.3 25.3 0 0 0-6.809.935c-2.403.667-4.539 1.335-6.408 2.269l-1.602-7.209c1.735-.801 4.139-1.602 7.076-2.27s6.008-1.068 9.212-1.068c3.738 0 6.943.534 9.613 1.736s4.673 3.07 6.141 5.874c1.469 2.804 2.27 6.542 2.27 11.215v17.357c0 1.869.134 4.539.267 8.144zm-5.875-8.144c2.137-.935 3.739-2.27 5.074-3.739v-8.144c-2.67-.267-4.94-.4-6.676-.4-4.139 0-6.942.667-8.544 2.002s-2.404 3.071-2.404 5.341c0 2.136.534 3.738 1.736 4.806s2.67 1.602 4.673 1.602c2.003.134 4.005-.4 6.141-1.468M461.393 140.454V88.918l9.88-.8v50.6c0 1.869.267 3.204.935 4.005.667.801 1.602 1.202 3.071 1.202.667 0 1.468-.134 2.67-.401l1.201 7.21c-.934.401-2.136.668-3.471.935s-2.67.4-3.872.4c-6.942-.4-10.414-4.139-10.414-11.615M486.227 140.454V88.918l9.879-.8v50.6c0 1.869.267 3.204.935 4.005.667.801 1.602 1.202 3.071 1.202.667 0 1.468-.134 2.67-.401l1.202 7.21c-.935.401-2.137.668-3.472.935s-2.67.4-3.872.4c-6.942-.4-10.413-4.139-10.413-11.615M544.838 130.306h-28.571c.4 9.079 4.806 13.752 13.084 13.752 2.002 0 4.139-.267 6.275-.801a47 47 0 0 0 6.141-2.003l2.136 6.809q-7.409 3.605-16.421 3.605c-4.673 0-8.545-.934-11.749-2.67q-4.807-2.603-7.21-7.61c-1.602-3.338-2.403-7.21-2.403-11.883 0-4.806.801-8.945 2.536-12.416 1.736-3.471 4.006-6.142 7.077-8.011s6.542-2.804 10.547-2.804c4.139 0 7.61.935 10.28 2.938 2.804 1.869 4.807 4.539 6.142 7.743s2.002 6.809 2.002 10.681v2.67zm-9.746-6.275c-.134-3.471-1.068-6.141-2.67-7.877-1.603-1.735-3.605-2.67-6.276-2.67-2.536 0-4.672.935-6.275 2.67-1.735 1.736-2.803 4.406-3.337 7.744h18.558zM552.315 118.156c0-2.403-.134-6.008-.267-10.947h9.345q.2 1.802.401 4.405c.133 1.736.267 3.071.267 4.139 1.201-1.869 2.27-3.471 3.471-4.806 1.068-1.335 2.403-2.403 3.872-3.204s3.204-1.202 5.073-1.202c1.603 0 2.804.134 4.006.534l-1.202 8.678q-1.402-.4-3.204-.4c-2.403 0-4.406.534-6.142 1.735-1.735 1.202-3.604 3.205-5.607 5.875V151h-9.88v-32.844zM584.09 168.758c-1.468-.267-2.67-.534-3.604-.935l1.869-7.209c.667.133 1.468.4 2.536.534 1.069.133 2.003.267 2.938.267 4.406 0 7.743-2.804 9.879-8.545l.668-1.602-16.021-43.926h10.681l8.144 24.567c1.335 4.138 2.136 7.476 2.537 9.612.801-3.204 1.602-6.275 2.67-9.479l8.144-24.833h10.013l-16.021 44.192c-1.469 4.139-3.204 7.61-4.94 10.147a19.2 19.2 0 0 1-6.142 5.741c-2.403 1.202-5.207 1.869-8.678 1.869-1.602 0-3.204-.133-4.673-.4M213.463 65.287c-2.27-1.202-3.872-3.07-5.074-5.34s-1.735-4.94-1.735-8.011c0-3.205.667-6.008 1.869-8.411a12.46 12.46 0 0 1 5.34-5.474c2.404-1.336 5.074-2.003 8.278-2.003 3.071 0 5.608.667 7.877 1.869 2.136 1.202 3.872 3.07 5.074 5.34s1.735 4.94 1.735 7.878c0 3.204-.667 6.008-1.869 8.41a12.46 12.46 0 0 1-5.34 5.475c-2.27 1.335-5.074 2.002-8.144 2.002-3.071.134-5.741-.534-8.011-1.735m13.618-3.739c1.469-.934 2.537-2.27 3.338-4.005a16.4 16.4 0 0 0 1.068-5.874c0-2.136-.267-4.14-.935-5.741-.667-1.736-1.602-3.071-3.07-4.006-1.469-1.068-3.205-1.468-5.474-1.468-2.137 0-3.872.534-5.341 1.468-1.468 1.068-2.537 2.404-3.338 4.14s-1.068 3.604-1.068 5.74.401 4.139 1.068 5.875c.668 1.735 1.736 3.07 3.205 4.139 1.468 1.068 3.204 1.468 5.34 1.468 1.869-.267 3.738-.667 5.207-1.736M247.375 40.854h-9.346l.4-4.406h23.632l-.534 4.406h-8.945v25.901h-5.207zM290.098 66.756h-5.874l-8.945-13.352h-3.605v13.351h-5.207V36.582h5.207v12.417h2.67l6.275-9.08c.935-1.334 1.869-2.269 2.804-2.937s2.136-.934 3.471-.934c1.202 0 2.27.133 3.071.534l-1.068 4.005a3.56 3.56 0 0 0-1.602-.4q-1.002 0-1.602.4c-.401.267-.935.801-1.336 1.469l-5.474 7.877zM294.104 36.582h8.144q5.808 0 8.812 2.403c2.002 1.602 3.07 3.872 3.07 6.81 0 2.002-.4 3.738-1.335 5.206s-2.136 2.67-3.872 3.472q-2.403 1.2-5.607 1.201-1.803 0-4.005-.4v11.482h-5.207zm13.084 13.485c1.068-1.068 1.602-2.404 1.602-4.273s-.534-3.204-1.736-4.005c-1.068-.801-2.803-1.202-4.94-1.202h-2.803v10.681c1.335.267 2.269.267 2.937.267 2.136 0 3.872-.534 4.94-1.468M324.144 65.287c-2.27-1.202-3.872-3.07-5.074-5.34s-1.735-4.94-1.735-8.011c0-3.205.667-6.008 1.869-8.411a12.45 12.45 0 0 1 5.34-5.474c2.403-1.336 5.074-2.003 8.278-2.003 3.071 0 5.607.667 7.877 1.869 2.136 1.202 3.872 3.07 5.073 5.34s1.736 4.94 1.736 7.878c0 3.204-.667 6.008-1.869 8.41a12.46 12.46 0 0 1-5.341 5.475c-2.269 1.335-5.073 2.002-8.144 2.002-3.204.134-5.874-.534-8.01-1.735m13.484-3.739c1.469-.934 2.537-2.27 3.338-4.005a16.4 16.4 0 0 0 1.068-5.874c0-2.136-.267-4.14-.934-5.741-.668-1.736-1.603-3.071-3.071-4.006-1.469-1.068-3.204-1.468-5.474-1.468-2.136 0-3.872.534-5.341 1.468-1.468 1.068-2.536 2.404-3.337 4.14s-1.069 3.604-1.069 5.74.401 4.139 1.069 5.875 1.735 3.07 3.204 4.139c1.469 1.068 3.204 1.468 5.34 1.468 2.003-.267 3.739-.667 5.207-1.736M373.944 66.756V50.2c0-2.136.133-4.539.267-7.21L358.99 66.757h-5.741V36.582h4.807v17.223c0 1.87 0 3.872-.134 6.142l14.953-23.365h6.008v30.174zm-11.749-32.844c-1.069-.534-2.003-1.335-2.537-2.27-.534-.934-.935-1.869-1.068-2.937h3.738c.401 2.27 1.736 3.338 3.872 3.338s3.471-1.068 4.005-3.338h3.739c-.134 1.068-.534 2.003-1.069 2.937-.534.935-1.468 1.603-2.536 2.27-1.068.668-2.537.935-4.139.935-1.469 0-2.937-.4-4.005-.935M392.635 40.854h-9.346l.401-4.406h23.498l-.534 4.406h-8.945v25.901h-5.207v-25.9zM411.594 36.582h17.757l-.534 4.272h-12.016v8.278h11.348v4.005h-11.348v9.213h12.683l-.4 4.272h-17.49zM465.933 51.802c1.068.668 1.869 1.469 2.537 2.67.667 1.069.934 2.404.934 3.739q0 2.604-1.201 4.406c-.801 1.335-2.137 2.27-3.739 2.937-1.602.668-3.605 1.068-5.874 1.068h-9.88v-30.04h9.479c3.205 0 5.608.668 7.21 1.87 1.602 1.2 2.403 2.936 2.403 5.073 0 1.735-.534 3.337-1.469 4.539-1.068 1.202-2.403 2.003-4.005 2.537q2.003.2 3.605 1.201m-12.016-2.937h3.204a6.2 6.2 0 0 0 2.804-.668 4.7 4.7 0 0 0 1.869-1.735 4.6 4.6 0 0 0 .668-2.403c0-1.202-.401-2.136-1.336-2.804-.934-.668-2.136-.935-3.871-.935h-3.472v8.545zm8.678 12.684c1.068-.935 1.602-2.136 1.602-3.739 0-1.735-.534-2.937-1.735-3.872-1.202-.934-2.804-1.335-5.074-1.335h-3.471V62.75h3.872q3.204.2 4.806-1.201"></path><path fill="#C8102E" fill-rule="evenodd" d="M135.225 36.716H79.818c-26.168 0-35.648 9.613-35.648 35.647v55.408c0 26.168 9.613 35.647 35.648 35.647h55.407c26.168 0 35.648-9.613 35.648-35.647V72.363c.133-26.034-9.48-35.647-35.648-35.647" clip-rule="evenodd"></path><path fill="#FFFFFF" d="M69.27 100.133h3.338v16.555h-3.337v-6.675h-7.61v6.675h-3.338v-16.555h3.337v6.675h7.61zm18.96 9.479c0 2.67-1.336 4.139-3.74 4.139-2.402 0-3.737-1.469-3.737-4.272v-9.346h-3.338v9.479c0 4.673 2.536 7.343 7.076 7.343s7.21-2.67 7.21-7.476v-9.346h-3.338v9.479zm38.851 1.869-3.738-11.348h-2.804l-3.738 11.348-3.605-11.348h-3.605l5.741 16.555h2.804l3.738-10.948 3.738 10.948h2.804l5.741-16.555h-3.471zm13.218-1.869h6.141v-3.071h-6.141v-3.337h8.945v-3.071h-12.15v16.555h12.55v-3.071h-9.212v-4.005zm13.217 7.076h3.338v-16.555h-3.338zm-55.273-3.471-1.47 3.471h-3.47l7.209-16.555h2.938l7.209 16.555h-3.471l-1.469-3.471zm1.201-2.937h5.074l-2.537-5.875zM107.588 79.038c-11.615 0-21.094-9.48-21.094-21.095h2.937c0 10.014 8.144 18.158 18.157 18.158s18.158-8.144 18.158-18.158h2.937c0 11.616-9.479 21.095-21.095 21.095"></path></svg>