<svg xmlns:xlink="http://www.w3.org/1999/xlink" xmlns="http://www.w3.org/2000/svg" width="128" height="40" fill="none" viewBox="0 0 128 40" aria-hidden="true" class="badge-img"><rect width="127" height="39" x="0.5" y="0.5" fill="#000" rx="5.5"></rect><rect width="127" height="39" x="0.5" y="0.5" stroke="#A6A6A6" rx="5.5" fill="none"></rect><path fill="#FFFFFF" d="M17.117 9h7.93c2.461 0 3.354.255 4.254.735.9.479 1.606 1.182 2.087 2.079.481.896.737 1.785.737 4.237v7.898c0 2.452-.256 3.341-.737 4.237a5 5 0 0 1-2.087 2.08c-.9.479-1.793.734-4.254.734h-7.93c-2.46 0-3.353-.255-4.253-.735a5 5 0 0 1-2.088-2.079c-.48-.896-.737-1.785-.737-4.237v-7.898c0-2.452.256-3.341.738-4.237a5 5 0 0 1 2.087-2.08c.9-.479 1.792-.734 4.253-.734"></path><mask id="320b6e-a" width="23" height="22" x="10" y="9" maskUnits="userSpaceOnUse" style="mask-type:alpha" fill="none"><path fill="#FF5C69" d="M17.117 9h7.93c2.461 0 3.354.255 4.254.735.9.479 1.606 1.182 2.087 2.079.481.896.737 1.785.737 4.237v7.898c0 2.452-.256 3.341-.737 4.237a5 5 0 0 1-2.087 2.08c-.9.479-1.793.734-4.254.734h-7.93c-2.46 0-3.353-.255-4.253-.735a5 5 0 0 1-2.088-2.079c-.48-.896-.737-1.785-.737-4.237v-7.898c0-2.452.256-3.341.738-4.237a5 5 0 0 1 2.087-2.08c.9-.479 1.792-.734 4.253-.734"></path></mask><g mask="url(#320b6e-a)" fill="none"><path fill="#00E691" fill-rule="evenodd" d="M25.85 33.962H9.252a2.183 2.183 0 0 1-2.187-2.181V27.35l6.095-6.111z" clip-rule="evenodd"></path><path fill="#00CCFF" fill-rule="evenodd" d="m29.623 18.978-12.9-12.94h16.189c1.207 0 2.186.978 2.186 2.183v5.265z" clip-rule="evenodd"></path><path fill="#8F61FF" fill-rule="evenodd" d="M32.907 33.938h-4.475l-5.769-5.77 12.435-12.437v16.026q-.002.363-.112.69a2.19 2.19 0 0 1-2.079 1.49" clip-rule="evenodd"></path><path fill="#FF5C69" fill-rule="evenodd" d="M7.065 24.774V8.217q.002-.334.096-.638a2.19 2.19 0 0 1 2.092-1.54h5.173l5.678 5.683z" clip-rule="evenodd"></path><path fill="#00E08A" d="M20.517 22.54v-6.348h1.13v6.347z"></path><path fill="#0FCFFF" fill-rule="evenodd" d="m17.377 20.186.799-.796 2.906 2.895 2.906-2.895.799.796-3.705 3.69z" clip-rule="evenodd"></path></g><path fill="#FFFFFF" d="M43.533 11.992c-.963 0-1.568.686-1.568 1.904 0 1.232.584 1.897 1.525 1.897.485 0 .837-.189 1.139-.525v-.854h-1.223v-.854h2.122v2.072c-.527.686-1.215 1.029-2.038 1.029-1.51 0-2.48-1.029-2.48-2.765s.99-2.772 2.523-2.772c.878 0 1.56.427 1.953 1.099l-.73.518c-.275-.455-.752-.749-1.223-.749m3.878 2.254v1.47h2.635v.847h-3.563v-5.341h3.472v.854H47.41v1.323h2.403v.847zm5.636 2.317h-.927V12.09h-1.603v-.868h4.125v.868h-1.595zm5.275-5.341v5.341h-.927v-5.341zm3.214 5.341h-.927V12.09h-1.602v-.868h4.125v.868h-1.596zm6.681.098c-1.525 0-2.488-1.029-2.488-2.765 0-1.743.963-2.772 2.488-2.772s2.48 1.029 2.48 2.772c0 1.736-.955 2.765-2.48 2.765m0-.868c.935 0 1.532-.693 1.532-1.897s-.597-1.904-1.532-1.904c-.942 0-1.532.7-1.532 1.904s.59 1.897 1.532 1.897m4.263.77h-.927v-5.341h.885l2.488 3.654h.035v-3.654h.927v5.341h-.85l-2.516-3.654h-.042zM42.771 30.07h-1.56V19.528h1.532l3.724 5.908h.085l3.724-5.908h1.518V30.07h-1.56v-7.56h-.084l-3.12 4.928h-1.04l-3.135-4.914h-.084zm12.921-10.024c0 .602-.394.966-.998.966-.59 0-.956-.364-.956-.966s.366-.98.956-.98c.604 0 .998.378.998.98m-.21 2.324v7.7h-1.533v-7.7zm13.733 7.7h-1.687l-1.18-3.234h-3.81l-1.18 3.234h-1.686l3.949-10.542h1.644zm-4.821-8.344-1.321 3.612h2.726l-1.32-3.612zm7.465 11.326h-1.532V22.37h1.532v1.05h.07c.534-.77 1.378-1.246 2.305-1.246 1.898 0 3.219 1.596 3.219 3.92 0 2.478-1.321 4.172-3.219 4.172-.983 0-1.784-.448-2.305-1.232h-.07zm-.056-6.832c0 1.54.815 2.576 1.982 2.576 1.237 0 2.108-1.036 2.108-2.576 0-1.512-.857-2.576-2.052-2.576s-2.038 1.064-2.038 2.576m8.716 6.832h-1.532V22.37h1.532v1.05h.07c.535-.77 1.378-1.246 2.306-1.246 1.897 0 3.218 1.596 3.218 3.92 0 2.478-1.32 4.172-3.218 4.172-.984 0-1.785-.448-2.305-1.232h-.07zm-.056-6.832c0 1.54.816 2.576 1.982 2.576 1.237 0 2.108-1.036 2.108-2.576 0-1.512-.857-2.576-2.052-2.576-1.194 0-2.038 1.064-2.038 2.576m11.775 3.85h-1.56V19.528h1.532l3.724 5.908h.085l3.724-5.908h1.518V30.07h-1.56v-7.56h-.084l-3.12 4.928h-1.04l-3.135-4.914h-.084zm13.089.196c-1.461 0-2.431-.826-2.431-2.17 0-1.666 1.377-2.548 3.781-2.548h.984v-.49c0-.952-.619-1.54-1.575-1.54-.688 0-1.293.35-1.799.826l-.955-.896c.73-.784 1.686-1.274 2.881-1.274 1.827 0 2.979 1.092 2.979 2.772v5.124h-1.531v-1.022h-.085c-.393.756-1.307 1.218-2.249 1.218m.366-1.33c.829 0 1.968-.504 1.968-1.694v-.364h-.745c-1.659 0-2.446.35-2.446 1.12 0 .56.464.938 1.223.938m5.309-.308v-9.1h1.532v8.652q0 .546.548.546h.38v1.442h-.787c-1.111 0-1.673-.532-1.673-1.54m3.706 0v-9.1h1.532v8.652q0 .546.548.546h.379v1.442h-.787c-1.11 0-1.672-.532-1.672-1.54"></path></svg>