<svg xmlns:xlink="http://www.w3.org/1999/xlink" xmlns="http://www.w3.org/2000/svg" width="112" height="40" fill="none" viewBox="0 0 112 40" aria-hidden="true" class="badge-img"><rect width="111" height="39" x="0.5" y="0.5" fill="#000" rx="5.5"></rect><rect width="111" height="39" x="0.5" y="0.5" stroke="#A6A6A6" rx="5.5" fill="none"></rect><path fill="#FFFFFF" d="M44.798 26.715c1.81-.467 3.004-1.864 3.004-3.69 0-2.259-1.796-3.847-4.315-3.847H39v12.156h2.07v-4.469h1.469l3.211 4.469h2.432l-3.384-4.623zm-1.31-5.64c1.295 0 2.19.794 2.19 1.95s-.895 1.95-2.19 1.95H41.07V21.08h2.416zM52.844 31.507a3.09 3.09 0 0 0 2.658-1.517l.395 1.344h1.484v-8.968h-1.984v5.192c0 1.276-.847 2.172-2.003 2.172s-1.931-.896-1.931-2.172v-5.192h-1.985v5.414c0 2.157 1.45 3.727 3.366 3.727M63.716 31.506c2.297 0 4.194-1.31 4.194-3.482 0-2.432-1.984-3.14-3.693-3.727-1.33-.448-2.485-.862-2.485-1.95 0-.949.881-1.45 1.916-1.45 1.088 0 1.864.569 2.297 1.536l1.969-.327C67.293 20.208 65.723 19 63.58 19s-3.968 1.276-3.968 3.448c0 2.451 1.984 3.121 3.693 3.69 1.31.43 2.484.843 2.484 1.95 0 .968-.88 1.517-2.055 1.517-1.348 0-2.07-.636-2.71-1.792l-2.003.347c.587 2.051 2.45 3.346 4.694 3.346M73.307 29.61c-.674 0-1.001-.328-1.001-1.001V24.09h2.677v-1.724h-2.677V19.78h-1.483l-.501 2.587h-1.469v1.724h1.469v4.518c0 1.758 1.016 2.725 2.985 2.725h1.675l.174-1.724zM80.826 31.507c2.812 0 4.796-1.931 4.796-4.657s-1.984-4.657-4.796-4.657-4.797 1.932-4.797 4.657 1.984 4.657 4.797 4.657m0-1.81c-1.623 0-2.726-1.156-2.726-2.847 0-1.69 1.103-2.846 2.726-2.846s2.725 1.156 2.725 2.846-1.103 2.846-2.725 2.846M89.334 31.334V26.04c0-1.137.553-1.777 1.761-1.777h1.141l-.173-1.898h-.38c-1.054 0-1.864.294-2.47 1.295l-.38-1.295H87.35v8.968zM102 26.748c0-2.587-1.931-4.552-4.66-4.552s-4.661 1.95-4.661 4.657 1.931 4.657 4.66 4.657c1.864 0 3.626-.88 4.296-2.586l-1.864-.313c-.433.64-1.26 1.088-2.311 1.088-1.517 0-2.519-.93-2.71-2.311h7.212a6 6 0 0 0 .034-.64m-4.66-2.828c1.242 0 2.176.795 2.503 1.913h-4.97c.328-1.156 1.262-1.912 2.47-1.912"></path><path fill="#0077FF" d="M9.688 30.314C11.376 32 14.09 32 19.521 32h.958c5.431 0 8.145 0 9.833-1.686S32 25.912 32 20.48v-.96c0-5.432 0-8.148-1.688-9.834S25.906 8 20.479 8h-.958c-5.431 0-8.149 0-9.833 1.686C8 11.376 8 14.092 8 19.52v.96c0 5.432 0 8.148 1.688 9.834"></path><path fill="#FFFFFF" fill-rule="evenodd" d="m26.528 23.953-1.62-.405a.47.47 0 0 1-.341-.434l-.203-5.969c-.06-.79-.643-1.42-1.257-1.603a.074.074 0 0 0-.09.034c-.023.03-.011.07.015.093.15.116.569.499.569 1.158v7.804c0 .753-.715 1.307-1.449 1.124l-1.647-.412a.46.46 0 0 1-.314-.431l-.202-5.968c-.06-.79-.644-1.42-1.258-1.604a.074.074 0 0 0-.09.034c-.022.03-.01.071.015.094.15.116.57.498.57 1.157v7.804c0 .753-.712 1.308-1.445 1.124l-4.65-1.161a1.45 1.45 0 0 1-1.1-1.405v-7.815c0-.753.711-1.308 1.445-1.124l2.93.73V15.37c0-.753.712-1.308 1.446-1.124l2.93.73v-1.408c0-.753.712-1.308 1.445-1.124l4.649 1.161a1.45 1.45 0 0 1 1.1 1.405v7.815c0 .753-.71 1.308-1.444 1.124" clip-rule="evenodd"></path><path fill="#FFFFFF" d="M41.98 14.303q-.854 0-1.533-.396a2.86 2.86 0 0 1-1.068-1.12 3.4 3.4 0 0 1-.379-1.61q0-.894.379-1.601a2.8 2.8 0 0 1 1.059-1.11 2.94 2.94 0 0 1 1.533-.405q.922 0 1.636.465.723.456 1.033 1.24l-.878.137a1.73 1.73 0 0 0-.715-.749 2 2 0 0 0-1.05-.275q-.603 0-1.077.292-.465.293-.732.818-.258.517-.258 1.189 0 .68.258 1.205.267.517.74.81.475.292 1.086.292.602 0 1.067-.275.474-.285.724-.793l.878.138a2.7 2.7 0 0 1-1.06 1.275 2.96 2.96 0 0 1-1.644.473M49.268 14.217h-1.11l-1.645-1.843h-.267v1.843h-.844V9.765h.844v1.8h.258l1.576-1.8h1.016l-1.911 2.153zM51.36 9.68q.828 0 1.3.542.483.534.483 1.498v2.497h-.603l-.198-.697q-.215.335-.577.56a1.6 1.6 0 0 1-.87.223 1.7 1.7 0 0 1-.8-.18 1.37 1.37 0 0 1-.551-.5 1.4 1.4 0 0 1-.198-.732q0-.63.5-1.008.498-.378 1.446-.378h1.007q-.034-.525-.293-.81-.258-.293-.688-.293-.327 0-.577.155a1.03 1.03 0 0 0-.38.405l-.783-.129a1.53 1.53 0 0 1 .663-.844q.49-.31 1.12-.31m-.284 3.908q.543 0 .879-.353.345-.36.344-.99v-.052h-.981q-1.12 0-1.12.672 0 .327.241.525t.637.198M56.537 12.598a2 2 0 0 1-.491.146q-.285.052-.56.052-.8 0-1.231-.448-.43-.447-.43-1.265V9.765h.843v1.318q0 .955.921.955.56 0 .947-.198V9.765h.844v4.452h-.844zM60.211 9.68q.827 0 1.3.542.482.534.482 1.498v2.497h-.602l-.198-.697q-.216.335-.577.56a1.6 1.6 0 0 1-.87.223 1.7 1.7 0 0 1-.8-.18 1.37 1.37 0 0 1-.552-.5 1.4 1.4 0 0 1-.198-.732q0-.63.5-1.008t1.446-.378h1.008q-.034-.525-.293-.81-.258-.293-.689-.293-.327 0-.577.155a1.03 1.03 0 0 0-.379.405l-.783-.129a1.53 1.53 0 0 1 .663-.844q.49-.31 1.12-.31m-.284 3.908q.543 0 .878-.353.345-.36.345-.99v-.052h-.982q-1.12 0-1.12.672 0 .327.242.525.24.198.637.198M64.267 14.217H63.02V9.765h.818v3.505h.129l1.8-3.505h1.248v4.452h-.818V10.72h-.13zm.758-5.029q-.56 0-.939-.293-.37-.3-.439-.895h.689q.043.276.215.422a.76.76 0 0 0 .474.138q.292 0 .465-.138A.62.62 0 0 0 65.705 8h.698q-.078.594-.457.896-.37.292-.921.292M70.034 14.217h-.844V10.54h-1.542v-.775h3.927v.775h-1.541zM76.359 11.961q0 .173-.01.267h-3.676q.069.594.465.947t1.008.353q.42 0 .749-.164.336-.172.508-.447l.792.129q-.258.603-.835.93a2.5 2.5 0 0 1-1.266.327 2.4 2.4 0 0 1-1.188-.293q-.525-.3-.818-.826a2.4 2.4 0 0 1-.293-1.189q0-.67.293-1.196t.81-.818q.516-.302 1.179-.302.654 0 1.17.302.526.292.819.818.293.516.293 1.162m-2.282-1.533q-.509 0-.879.302-.36.3-.482.809h2.721a1.4 1.4 0 0 0-.482-.8 1.3 1.3 0 0 0-.878-.31M80.152 14.217h-1.249V9.765h.818v3.505h.13l1.799-3.505h1.248v4.452h-.817V10.72h-.13zM86.4 11.944q.354.103.586.379a.97.97 0 0 1 .233.663q0 .37-.216.671-.215.293-.62.474a2.3 2.3 0 0 1-.921.172q-.706 0-1.214-.327a1.58 1.58 0 0 1-.672-.896l.784-.129q.285.62 1.093.62.449 0 .68-.163a.55.55 0 0 0 .242-.474.51.51 0 0 0-.224-.43q-.216-.164-.698-.164h-.585v-.74h.585q.413 0 .629-.156a.48.48 0 0 0 .224-.413.53.53 0 0 0-.241-.448.94.94 0 0 0-.577-.172 1.13 1.13 0 0 0-.603.164 1.05 1.05 0 0 0-.405.447l-.783-.137q.198-.577.68-.887a2.04 2.04 0 0 1 1.137-.319q.465 0 .835.164.379.163.585.456.216.292.216.655a.97.97 0 0 1-.207.628 1.1 1.1 0 0 1-.543.362"></path></svg>